AGORA 2009 DVDRIP

Format                           : AVI
Format/Info                      : Audio Video Interleave
File size                        : 562 MiB
Duration                         : 2h 1mn
Overall bit rate                 : 647 Kbps
Writing application              : MEncoder Sherpya-SVN-r27811-4.2.5
Writing library                  : MPlayer

Video
ID                               : 0
Format                           : MPEG-4 Visual
Format profile                   : AdvancedSimple@L5
Format settings, BVOP            : No
Format settings, QPel            : No
Format settings, GMC             : No warppoints
Format settings, Matrix          : Default (H.263)
Codec ID                         : XVID
Codec ID/Hint                    : XviD
Duration                         : 2h 1mn
Bit rate                         : 511 Kbps
Width                            : 480 pixels
Height                           : 204 pixels
Display aspect ratio             : 2.35:1
Frame rate                       : 25.000 fps
Resolution                       : 24 bits
Colorimetry                      : 4:2:0
Scan type                        : Progressive
Bits/(Pixel*Frame)               : 0.209
Stream size                      : 444 MiB (79%)
Writing library                  : XviD 1.1.2 (UTC 2006-11-01)

Audio
ID                               : 1
Format                           : MPEG Audio
Format version                   : Version 1
Format profile                   : Layer 3
Codec ID                         : 55
Codec ID/Hint                    : MP3
Duration                         : 2h 1mn
Bit rate mode                    : Variable
Bit rate                         : 123 Kbps
Channel(s)                       : 2 channels
Sampling rate                    : 44.1 KHz
Resolution                       : 16 bits
Stream size                      : 107 MiB (19%)
Alignment                        : Aligned on interleaves
Interleave, duration             : 26 ms (0.65 video frame)
Interleave, preload duration     : 502 ms
Writing library                  : LAME3.98

Tells the story of astronomer-philosopher Hypatia of Alexandria (Weisz) and her relationship with her slave Davus (Minghella), who is torn between his love for his mistress and the possibility of gaining his freedom by joining the rising tide of Christianity
http://www.imdb.com/title/tt1186830/

PLEASE SEED AND ENJOY THANKS

screens 
http://img46.imageshack.us/img46/8590/agoraxvidviceavithumbs2.jpg

